<svg xmlns="http://www.w3.org/2000/svg" width="39" height="38" viewBox="0 0 39 38"><defs><style>.a{fill:#682b8c;}.b{fill:#fff;}</style></defs><g transform="translate(0.415 -0.282)"><rect class="a" width="39" height="38" rx="5" transform="translate(-0.415 0.282)"/><g transform="translate(5.779 5.779)"><path class="b" d="M15.7.914A1.029,1.029,0,0,1,16.819,0a1.026,1.026,0,0,1,1.114.914V4.908a1.029,1.029,0,0,1-1.114.914A1.026,1.026,0,0,1,15.7,4.908V.914ZM3.235,17.571H5.788a.3.3,0,0,1,.295.295v1.887a.3.3,0,0,1-.295.295H3.235a.3.3,0,0,1-.295-.295V17.866a.294.294,0,0,1,.295-.295Zm9.775-5.376h2.553a.3.3,0,0,1,.2.081,9.088,9.088,0,0,0-2.56,2.4h-.2a.3.3,0,0,1-.295-.295V12.492a.3.3,0,0,1,.295-.3Zm-4.887,0h2.553a.3.3,0,0,1,.295.295v1.887a.3.3,0,0,1-.295.295H8.122a.3.3,0,0,1-.295-.295V12.49a.3.3,0,0,1,.295-.295Zm-4.887,0H5.788a.3.3,0,0,1,.295.295v1.887a.3.3,0,0,1-.295.295H3.235a.3.3,0,0,1-.295-.295V12.49a.3.3,0,0,1,.295-.295Zm4.887,5.376h2.553a.3.3,0,0,1,.295.295v1.887a.3.3,0,0,1-.295.295H8.122a.3.3,0,0,1-.295-.295V17.866a.294.294,0,0,1,.295-.295ZM23.3,13.4a7.071,7.071,0,1,1-9.777,6.533,7.187,7.187,0,0,1,4.4-6.58A7.443,7.443,0,0,1,23.3,13.4ZM19.5,19.748a1.181,1.181,0,0,1,.313-.243V16.429a.568.568,0,0,1,1.137,0V19.5a1.2,1.2,0,0,1,.489.489h2.2a.567.567,0,0,1,0,1.135h-2.2a1.2,1.2,0,1,1-1.938-1.38Zm5.286-3.9a5.332,5.332,0,1,0,1.144,1.49,5.485,5.485,0,0,0-1.144-1.49ZM5.7.914A1.029,1.029,0,0,1,6.817,0,1.027,1.027,0,0,1,7.931.914V4.908a1.03,1.03,0,0,1-1.114.914A1.027,1.027,0,0,1,5.7,4.908V.914ZM1.227,8.733H22.436v-4.6a.554.554,0,0,0-.164-.4.566.566,0,0,0-.4-.164H19.842a.617.617,0,0,1,0-1.234h2.033a1.8,1.8,0,0,1,1.8,1.8v7.3a9.222,9.222,0,0,0-1.252-.335V9.964H1.227V21.875a.554.554,0,0,0,.164.4.566.566,0,0,0,.4.164H11.866a9.065,9.065,0,0,0,.432,1.247H1.8a1.8,1.8,0,0,1-1.8-1.8V4.14a1.8,1.8,0,0,1,1.8-1.8h2.17a.617.617,0,0,1,0,1.234H1.8a.554.554,0,0,0-.4.164.566.566,0,0,0-.164.4v4.6H1.227v0ZM9.71,3.573a.617.617,0,1,1,0-1.234h4.14a.617.617,0,1,1,0,1.234Z"/></g></g></svg>